<svg xmlns="http://www.w3.org/2000/svg" width="880" height="420" font-family="ui-sans-serif, system-ui">
  <rect width="880" height="420" fill="#fbfff5"/>
  <text x="60" y="24" font-size="15" font-weight="700" fill="#1b2a16">Per-keystroke latency (p50, ms) — 6× CPU throttle</text>
  <line x1="60" y1="290" x2="860" y2="290" stroke="#1b2a16" stroke-width="1"/>
  <rect x="60" y="390" width="12" height="12" fill="#d2691e"/><text x="78" y="400" font-size="12">prosemirror-view (DOM)</text>
  <rect x="260" y="390" width="12" height="12" fill="#4f9e2c"/><text x="278" y="400" font-size="12">prosemirror-pretext (canvas)</text>
  
      <rect x="96" y="40" width="60" height="250" fill="#d2691e"/>
      <rect x="164" y="290" width="60" height="0" fill="#4f9e2c"/>
      <text x="126" y="35" font-size="11" text-anchor="middle" fill="#7a3d10">0.7</text>
      <text x="194" y="285" font-size="11" text-anchor="middle" fill="#2f6e1c">0.00</text>
      <text x="160" y="308" font-size="12" text-anchor="middle" fill="#1b2a16">A</text>
      <rect x="296" y="40" width="60" height="250" fill="#d2691e"/>
      <rect x="364" y="254.285711244661" width="60" height="35.714288755339" fill="#4f9e2c"/>
      <text x="326" y="35" font-size="11" text-anchor="middle" fill="#7a3d10">0.7</text>
      <text x="394" y="249.285711244661" font-size="11" text-anchor="middle" fill="#2f6e1c">0.10</text>
      <text x="360" y="308" font-size="12" text-anchor="middle" fill="#1b2a16">A</text>
      <rect x="496" y="290" width="60" height="0" fill="#d2691e"/>
      <rect x="564" y="290" width="60" height="0" fill="#4f9e2c"/>
      <text x="526" y="285" font-size="11" text-anchor="middle" fill="#7a3d10">0.0</text>
      <text x="594" y="285" font-size="11" text-anchor="middle" fill="#2f6e1c">0.00</text>
      <text x="560" y="308" font-size="12" text-anchor="middle" fill="#1b2a16">B</text>
      <rect x="696" y="254.28571656650425" width="60" height="35.71428343349575" fill="#d2691e"/>
      <rect x="764" y="290" width="60" height="0" fill="#4f9e2c"/>
      <text x="726" y="249.28571656650425" font-size="11" text-anchor="middle" fill="#7a3d10">0.1</text>
      <text x="794" y="285" font-size="11" text-anchor="middle" fill="#2f6e1c">0.00</text>
      <text x="760" y="308" font-size="12" text-anchor="middle" fill="#1b2a16">C</text>
</svg>