<svg xmlns="http://www.w3.org/2000/svg" width="880" height="460" font-family="ui-sans-serif, system-ui">
  <rect width="880" height="460" fill="#fbfff5"/>
  <text x="64" y="26" font-size="15" font-weight="700" fill="#1b2a16">Read-after-write latency vs document size — 6× CPU throttle</text>
  <text x="64" y="446" font-size="12" fill="#6a7a5c">document blocks →</text>
  <line x1="64" y1="390.0" x2="856" y2="390.0" stroke="#e0ecd8"/><text x="56" y="390.04" font-size="10" text-anchor="end" fill="#6a7a5c">0.0</text><line x1="64" y1="305.0" x2="856" y2="305.0" stroke="#e0ecd8"/><text x="56" y="305.04" font-size="10" text-anchor="end" fill="#6a7a5c">2.7</text><line x1="64" y1="220.0" x2="856" y2="220.0" stroke="#e0ecd8"/><text x="56" y="220.04" font-size="10" text-anchor="end" fill="#6a7a5c">5.4</text><line x1="64" y1="135.0" x2="856" y2="135.0" stroke="#e0ecd8"/><text x="56" y="135.04" font-size="10" text-anchor="end" fill="#6a7a5c">8.1</text><line x1="64" y1="50.0" x2="856" y2="50.0" stroke="#e0ecd8"/><text x="56" y="50.04" font-size="10" text-anchor="end" fill="#6a7a5c">10.8</text>
  <path d="M83.8,386.8 L143.2,355.3 L380.8,270.1 L856.0,80.9" fill="none" stroke="#d2691e" stroke-width="2.5"/><circle cx="83.8" cy="386.8" r="3.5" fill="#d2691e"/><circle cx="143.2" cy="355.3" r="3.5" fill="#d2691e"/><circle cx="380.8" cy="270.1" r="3.5" fill="#d2691e"/><circle cx="856.0" cy="80.9" r="3.5" fill="#d2691e"/>
  <path d="M83.8,386.8 L143.2,386.8 L380.8,374.2 L856.0,361.6" fill="none" stroke="#4f9e2c" stroke-width="2.5"/><circle cx="83.8" cy="386.8" r="3.5" fill="#4f9e2c"/><circle cx="143.2" cy="386.8" r="3.5" fill="#4f9e2c"/><circle cx="380.8" cy="374.2" r="3.5" fill="#4f9e2c"/><circle cx="856.0" cy="361.6" r="3.5" fill="#4f9e2c"/>
  <text x="83.8" y="410" font-size="11" text-anchor="middle" fill="#1b2a16">200</text><text x="143.2" y="410" font-size="11" text-anchor="middle" fill="#1b2a16">800</text><text x="380.8" y="410" font-size="11" text-anchor="middle" fill="#1b2a16">3200</text><text x="856.0" y="410" font-size="11" text-anchor="middle" fill="#1b2a16">8000</text>
  <rect x="64" y="50" width="12" height="12" fill="#d2691e"/><text x="82" y="60" font-size="12">prosemirror-view (DOM) — grows linearly</text>
  <rect x="384" y="50" width="12" height="12" fill="#4f9e2c"/><text x="402" y="60" font-size="12">prosemirror-pretext (canvas) — flat</text>
</svg>